<?xml version="1.0" encoding="UTF-8"?>
<svg version="1.1" xmlns="http://www.w3.org/2000/svg" width="266" height="64">
<path d="M0 0 C8.51213047 6.30405512 8.51213047 6.30405512 9.82421875 11.54296875 C10.0625 13.7734375 10.0625 13.7734375 10.13671875 16.16796875 C10.21277344 17.09222656 10.28882813 18.01648438 10.3671875 18.96875 C10.5818896 23.2569893 10.47421162 26.38559892 8.76171875 30.35546875 C4.13061728 35.31736318 -0.7039174 40.03536662 -7.17578125 42.35546875 C-15.11552146 41.95175315 -23.00142925 40.88104278 -28.86328125 35.16796875 C-30.6640625 32.3984375 -30.6640625 32.3984375 -32.17578125 29.35546875 C-32.94341797 27.86080078 -32.94341797 27.86080078 -33.7265625 26.3359375 C-35.56469775 21.21316193 -35.40341178 17.61869398 -33.5078125 12.52734375 C-32.91176321 11.31690519 -32.30082025 10.11369552 -31.67578125 8.91796875 C-31.38380859 8.30695312 -31.09183594 7.6959375 -30.79101562 7.06640625 C-28.1563499 1.87639808 -25.37487084 0.072141 -20.03125 -1.8515625 C-11.85296966 -4.02743525 -7.19476336 -4.60347069 0 0 Z " fill="#EDA206" transform="translate(73.86328125,12.83203125)"/>
<path d="M0 0 C11 0 11 0 14.69921875 3.0625 C15.72931805 4.34848384 16.7255336 5.66228566 17.6875 7 C18.21021484 7.66773438 18.73292969 8.33546875 19.27148438 9.0234375 C20.54486095 10.65896704 21.77691442 12.32652863 23 14 C23.33 9.38 23.66 4.76 24 0 C28.29 0 32.58 0 37 0 C37 12.21 37 24.42 37 37 C25 37 25 37 21.421875 34.15625 C20.49332714 32.96613936 19.60219982 31.74592131 18.75 30.5 C18.27949219 29.87996094 17.80898437 29.25992188 17.32421875 28.62109375 C16.18198574 27.1058867 15.08585471 25.55610674 14 24 C13.67 28.29 13.34 32.58 13 37 C8.71 37 4.42 37 0 37 C0 24.79 0 12.58 0 0 Z " fill="#FFFFFF" transform="translate(105,13)"/>
<path d="M0 0 C5.6925 -0.12375 5.6925 -0.12375 11.5 -0.25 C12.68013672 -0.28641602 13.86027344 -0.32283203 15.07617188 -0.36035156 C22.71728962 -0.44032275 28.33323138 0.49328874 33.96875 5.8828125 C36.13059291 10.32114151 35.68433139 15.21607587 35 20 C33.39555899 23.45978225 31.15404944 25.42297528 27.71875 27.140625 C24.56908614 28.1362084 21.98350747 28.19743972 18.6875 28.125 C17.61886719 28.10695313 16.55023438 28.08890625 15.44921875 28.0703125 C14.64097656 28.04710938 13.83273438 28.02390625 13 28 C13 30.97 13 33.94 13 37 C8.71 37 4.42 37 0 37 C0 24.79 0 12.58 0 0 Z M13 10 C13 12.64 13 15.28 13 18 C16.41656024 18.16677282 16.41656024 18.16677282 20 18 C20.66 17.34 21.32 16.68 22 16 C21.83492354 13.42459787 21.83492354 13.42459787 21 11 C18.29120665 9.64560332 15.99066732 9.93498549 13 10 Z " fill="#FFFFFF" transform="translate(229,13)"/>
<path d="M0 0 C2.5 2.6875 2.5 2.6875 4 5 C1.69 7.31 -0.62 9.62 -3 12 C-5 11 -7 10 -9 9 C-13.66045758 8.54730493 -13.66045758 8.54730493 -17.875 10.1875 C-19.34843296 12.56136421 -19.80462453 14.19961824 -20 17 C-19.28776153 20.22174544 -19.28776153 20.22174544 -18 23 C-14.93570224 24.53214888 -12.3834358 24.22938548 -9 24 C-6.12853006 22.63002843 -6.12853006 22.63002843 -4 21 C-1.36 23.31 1.28 25.62 4 28 C0.87338103 32.10927065 -0.93256506 34.45647097 -6 36 C-13.61480595 36.83850616 -20.74852849 36.8145219 -27 32 C-31.69899166 27.60222575 -34.03568532 23.07975077 -34.375 16.6875 C-34.22518883 11.06021782 -32.38605255 6.64074355 -28.609375 2.4609375 C-20.86728576 -4.50694281 -8.94968751 -5.27907835 0 0 Z " fill="#FFFFFF" transform="translate(35,15)"/>
<path d="M0 0 C10.23 0 20.46 0 31 0 C31 3.3 31 6.6 31 10 C25.06 10 19.12 10 13 10 C13 11.65 13 13.3 13 15 C18.28 15 23.56 15 29 15 C29 18.63 29 22.26 29 26 C23.72 26 18.44 26 13 26 C13 29.63 13 33.26 13 37 C8.71 37 4.42 37 0 37 C0 24.79 0 12.58 0 0 Z " fill="#FFFFFF" transform="translate(146,13)"/>
<path d="M0 0 C8.51213047 6.30405512 8.51213047 6.30405512 9.82421875 11.54296875 C10.0625 13.7734375 10.0625 13.7734375 10.13671875 16.16796875 C10.21277344 17.09222656 10.28882813 18.01648438 10.3671875 18.96875 C10.5818896 23.2569893 10.47421162 26.38559892 8.76171875 30.35546875 C4.13061728 35.31736318 -0.7039174 40.03536662 -7.17578125 42.35546875 C-15.11552146 41.95175315 -23.00142925 40.88104278 -28.86328125 35.16796875 C-30.6640625 32.3984375 -30.6640625 32.3984375 -32.17578125 29.35546875 C-32.94341797 27.86080078 -32.94341797 27.86080078 -33.7265625 26.3359375 C-35.56469775 21.21316193 -35.40341178 17.61869398 -33.5078125 12.52734375 C-32.91176321 11.31690519 -32.30082025 10.11369552 -31.67578125 8.91796875 C-31.38380859 8.30695312 -31.09183594 7.6959375 -30.79101562 7.06640625 C-28.1563499 1.87639808 -25.37487084 0.072141 -20.03125 -1.8515625 C-11.85296966 -4.02743525 -7.19476336 -4.60347069 0 0 Z M-24.42578125 7.48046875 C-25.13734375 8.81078125 -25.13734375 8.81078125 -25.86328125 10.16796875 C-26.44078125 11.13734375 -27.01828125 12.10671875 -27.61328125 13.10546875 C-29.37617161 17.42455012 -29.39210788 20.63540844 -27.8671875 25.0546875 C-24.53609787 31.64991549 -24.53609787 31.64991549 -18.42578125 35.35546875 C-16.11544851 35.88325403 -16.11544851 35.88325403 -13.86328125 36.16796875 C-12.70828125 36.37421875 -11.55328125 36.58046875 -10.36328125 36.79296875 C-5.11102126 35.85506518 -1.67497955 32.79335186 2.13671875 29.16796875 C5.53103817 24.07648961 4.80637234 18.10416881 4.13671875 12.16796875 C2.26030705 8.95783828 2.26030705 8.95783828 -0.86328125 7.16796875 C-1.46398437 6.7090625 -2.0646875 6.25015625 -2.68359375 5.77734375 C-9.29734334 0.74093193 -18.09048579 1.7632509 -24.42578125 7.48046875 Z " fill="#F6CF2F" transform="translate(73.86328125,12.83203125)"/>
<path d="M0 0 C4.62 0 9.24 0 14 0 C14 8.91 14 17.82 14 27 C19.28 27 24.56 27 30 27 C30 30.3 30 33.6 30 37 C20.1 37 10.2 37 0 37 C0 24.79 0 12.58 0 0 Z " fill="#FFFFFF" transform="translate(179,13)"/>
<path d="M0 0 C4.62 0 9.24 0 14 0 C14 12.21 14 24.42 14 37 C9.38 37 4.76 37 0 37 C0 24.79 0 12.58 0 0 Z " fill="#FFFFFF" transform="translate(211,13)"/>
<path d="M0 0 C4.29 0 8.58 0 13 0 C13 12.21 13 24.42 13 37 C8.71 37 4.42 37 0 37 C0 24.79 0 12.58 0 0 Z " fill="#FFFFFF" transform="translate(87,13)"/>
<path d="M0 0 C2.875 0.75 2.875 0.75 3.875 1.75 C3.91580783 3.74958364 3.91754356 5.75045254 3.875 7.75 C1.895 8.74 1.895 8.74 -0.125 9.75 C-0.125 10.41 -0.125 11.07 -0.125 11.75 C0.865 11.75 1.855 11.75 2.875 11.75 C2.545 12.74 2.215 13.73 1.875 14.75 C0.885 15.08 -0.105 15.41 -1.125 15.75 C-1.92712628 17.62387216 -1.92712628 17.62387216 -2.3125 19.8125 C-2.580625 21.111875 -2.84875 22.41125 -3.125 23.75 C-0.155 22.76 2.815 21.77 5.875 20.75 C6.205 18.77 6.535 16.79 6.875 14.75 C7.865 15.08 8.855 15.41 9.875 15.75 C9.80165178 18.83062525 9.46921981 21.01774613 7.49609375 23.44921875 C3.52859261 27.11494128 0.42903536 28.75 -5.125 28.75 C-9.53556148 28.07720249 -11.48920391 27.45272199 -14.5 24.125 C-16.48284036 20.00679309 -17.0500812 17.32004709 -17.125 12.75 C-15.6875 10.75 -15.6875 10.75 -14.125 9.75 C-13.465 10.08 -12.805 10.41 -12.125 10.75 C-12.33125 11.6575 -12.5375 12.565 -12.75 13.5 C-13.1377245 16.86027897 -12.92911967 17.99075815 -11.125 20.75 C-10.465 20.75 -9.805 20.75 -9.125 20.75 C-8.135 18.11 -7.145 15.47 -6.125 12.75 C-6.785 12.75 -7.445 12.75 -8.125 12.75 C-8.125 11.76 -8.125 10.77 -8.125 9.75 C-7.135 9.42 -6.145 9.09 -5.125 8.75 C-5.455 8.42 -5.785 8.09 -6.125 7.75 C-6.41931219 4.9540342 -6.46272308 3.31287181 -5 0.875 C-3.125 -0.25 -3.125 -0.25 0 0 Z " fill="#FEEA54" transform="translate(65.125,17.25)"/>
<path d="M0 0 C12.51780137 6.64209869 12.51780137 6.64209869 14.8828125 12 C15.47940253 14.35274942 15.79214991 16.58138078 16 19 C16.12181641 20.3921875 16.12181641 20.3921875 16.24609375 21.8125 C16.44310611 26.20647255 16.54341519 29.86026614 14.1875 33.6875 C13.465625 34.450625 12.74375 35.21375 12 36 C11.01 36 10.02 36 9 36 C9.721875 35.34 10.44375 34.68 11.1875 34 C11.785625 33.01 12.38375 32.02 13 31 C11.97870959 27.42866675 11.97870959 27.42866675 10.85546875 25.1171875 C9.9618445 22.90556949 9.7545847 21.18077203 9.625 18.8125 C8.86182171 14.15711244 7.42749701 13.10866007 4 10 C1.75127759 6.76385782 0 4.04022185 0 0 Z " fill="#F6E155" transform="translate(68,10)"/>
<path d="M0 0 C0.66 0.33 1.32 0.66 2 1 C1.73958333 2.98567708 1.47916667 4.97135417 1.21875 6.95703125 C0.946767 9.15471706 0.946767 9.15471706 1 12 C0.01 11.67 -0.98 11.34 -2 11 C-2 11.99 -2 12.98 -2 14 C-1.34 14 -0.68 14 0 14 C-0.66 16.97 -1.32 19.94 -2 23 C-5.46264391 21.84578536 -6.28784522 21.16748634 -8 18 C-7.6875 14.75 -7.6875 14.75 -7 12 C-7.99 12.33 -8.98 12.66 -10 13 C-9.28595036 9.28694189 -7.98571621 6.21822972 -6 3 C-2.9375 1.0625 -2.9375 1.0625 0 0 Z " fill="#F0A104" transform="translate(59,16)"/>
<path d="M0 0 C0.66 0.33 1.32 0.66 2 1 C1.360625 1.969375 0.72125 2.93875 0.0625 3.9375 C-2.71429192 8.87401897 -3.8548725 13.71548987 -2.40625 19.28125 C-0.74817198 23.22633219 0.33039239 24.69678146 4.3125 26.5 C7.99912524 27.0839773 7.99912524 27.0839773 11.75 27 C15 27 15 27 18 29 C13.77649534 31.81566977 10.68634884 31.34572142 5.75390625 30.7109375 C1.78901651 29.81499277 -0.36419035 28.81300251 -2.90625 25.5625 C-5.7670724 20.59654414 -7.59607238 16.8291234 -7 11 C-5.9765625 8.515625 -5.9765625 8.515625 -4.625 6.25 C-4.18414062 5.49203125 -3.74328125 4.7340625 -3.2890625 3.953125 C-2 2 -2 2 0 0 Z " fill="#D9850F" transform="translate(52,18)"/>
<path d="M0 0 C2.875 0.75 2.875 0.75 3.875 1.75 C3.91580783 3.74958364 3.91754356 5.75045254 3.875 7.75 C1.895 8.74 1.895 8.74 -0.125 9.75 C-0.125 10.41 -0.125 11.07 -0.125 11.75 C0.865 11.75 1.855 11.75 2.875 11.75 C2.545 12.74 2.215 13.73 1.875 14.75 C0.225 15.08 -1.425 15.41 -3.125 15.75 C-6.80339196 6.70728643 -6.80339196 6.70728643 -6.125 2.75 C-4.319333 -0.259445 -3.53577529 -0.28286202 0 0 Z " fill="#FBDF3F" transform="translate(65.125,17.25)"/>
<path d="M0 0 C3 4.86206897 3 4.86206897 3 8 C1.989375 7.62875 0.97875 7.2575 -0.0625 6.875 C-4.17315151 5.67675341 -6.96271337 6.62884605 -11 8 C-12.32 8 -13.64 8 -15 8 C-15.66 6.02 -16.32 4.04 -17 2 C-15.10787298 1.46585888 -13.21108364 0.94821671 -11.3125 0.4375 C-10.25675781 0.14746094 -9.20101562 -0.14257812 -8.11328125 -0.44140625 C-4.94262853 -1.01029375 -3.02984359 -1.05617787 0 0 Z " fill="#FAD135" transform="translate(68,10)"/>
<path d="M0 0 C0.66 0.33 1.32 0.66 2 1 C1.79375 1.9075 1.5875 2.815 1.375 3.75 C0.9872755 7.11027897 1.19588033 8.24075815 3 11 C3.66 11 4.32 11 5 11 C5.66 10.34 6.32 9.68 7 9 C7.66 11.97 8.32 14.94 9 18 C4.65150569 17.83275022 2.64361006 17.69442138 -0.375 14.4375 C-2.33587086 10.28950395 -2.92482272 7.585814 -3 3 C-1.5625 1 -1.5625 1 0 0 Z " fill="#FCD838" transform="translate(51,27)"/>
<path d="M0 0 C3 1 3 1 3.9375 2.75 C4.03233915 6.16420953 2.22913657 7.52318158 0 10 C-1.00573778 11.32901064 -2.00795408 12.66073801 -3 14 C-4.625 11.875 -4.625 11.875 -6 9 C-5.36475013 5.47083406 -4.60197248 3.60197248 -2.0625 1.0625 C-1.381875 0.711875 -0.70125 0.36125 0 0 Z " fill="#FCE173" transform="translate(49,13)"/>
<path d="M0 0 C0.99 0.33 1.98 0.66 3 1 C2.85969405 4.01657791 2.70648535 6.23841273 0.59765625 8.51171875 C-0.88904235 9.73256066 -2.44134898 10.87246522 -4 12 C-5.32 10.68 -6.64 9.36 -8 8 C-5.69 7.34 -3.38 6.68 -1 6 C-0.67 4.02 -0.34 2.04 0 0 Z " fill="#FBD839" transform="translate(72,32)"/>
<path d="M0 0 C2.375 0.0625 2.375 0.0625 5 1 C8 5.86206897 8 5.86206897 8 9 C1.25 7.125 1.25 7.125 -1 6 C-1.042721 4.33388095 -1.04063832 2.66617115 -1 1 C-0.67 0.67 -0.34 0.34 0 0 Z " fill="#F3C614" transform="translate(63,9)"/>
<path d="M0 0 C2 1 2 1 3.125 4.25 C3.85463482 7.37700635 4.19234975 9.82622905 4 13 C0.10769231 8.04615385 0.10769231 8.04615385 -1 5 C-0.625 2.25 -0.625 2.25 0 0 Z " fill="#D3790A" transform="translate(46,30)"/>
<path d="M0 0 C1.65 0.33 3.3 0.66 5 1 C4.67 2.32 4.34 3.64 4 5 C2.35 4.67 0.7 4.34 -1 4 C-0.67 2.68 -0.34 1.36 0 0 Z " fill="#EDA106" transform="translate(62,20)"/>
<path d="M0 0 C2.97 0.495 2.97 0.495 6 1 C6.33 2.32 6.66 3.64 7 5 C6.01 5.495 6.01 5.495 5 6 C4.67 5.34 4.34 4.68 4 4 C3.01 3.34 2.02 2.68 1 2 C0.67 1.34 0.34 0.68 0 0 Z " fill="#F6D639" transform="translate(62,17)"/>
</svg>
